HIERARCHY
ROOT Pelvis
{
	OFFSET 0.000000 0.000000 0.000000
	CHANNELS 6 Xposition Yposition Zposition Xrotation Yrotation Zrotation
	JOINT LeftUpLeg_virtual
	{
		OFFSET 0.000000 0.000000 0.000000
		CHANNELS 3 Xrotation Yrotation Zrotation
		JOINT LeftUpLeg
		{
			OFFSET 8.479700 -4.795502 -0.379100
			CHANNELS 3 Xrotation Yrotation Zrotation
			JOINT LeftLeg
			{
				OFFSET 0.024144 -32.555107 0.112900
				CHANNELS 3 Xrotation Yrotation Zrotation
				JOINT LeftFoot
				{
					OFFSET -0.024144 -32.638630 -3.012600
					CHANNELS 3 Xrotation Yrotation Zrotation
					JOINT LeftToeBase
					{
						OFFSET 0.970200 -13.225400 11.864200
						CHANNELS 3 Xrotation Yrotation Zrotation
						End Site
						{
							OFFSET 0 0 0
						}
					}
				}
			}
		}
	}
	JOINT RightUpLeg_virtual
	{
		OFFSET 0.000000 0.000000 0.000000
		CHANNELS 3 Xrotation Yrotation Zrotation
		JOINT RightUpLeg
		{
			OFFSET -8.479700 -4.795502 -0.379100
			CHANNELS 3 Xrotation Yrotation Zrotation
			JOINT RightLeg
			{
				OFFSET -0.023144 -32.555092 0.112900
				CHANNELS 3 Xrotation Yrotation Zrotation
				JOINT RightFoot
				{
					OFFSET 0.023144 -32.638641 -3.012700
					CHANNELS 3 Xrotation Yrotation Zrotation
					JOINT RightToeBase
					{
						OFFSET -0.970200 -13.225400 11.864200
						CHANNELS 3 Xrotation Yrotation Zrotation
						End Site
						{
							OFFSET 0 0 0
						}
					}
				}
			}
		}
	}
	JOINT Hips_virtual
	{
		OFFSET 0.000000 0.000000 0.000000
		CHANNELS 3 Xrotation Yrotation Zrotation
		JOINT Hips
		{
			OFFSET -0.000000 -0.000000 -0.000000
			CHANNELS 3 Xrotation Yrotation Zrotation
			JOINT Spine
			{
				OFFSET 0.000000 7.722000 1.166200
				CHANNELS 3 Xrotation Yrotation Zrotation
				JOINT Spine1
				{
					OFFSET 0.000000 12.024101 0.248800
					CHANNELS 3 Xrotation Yrotation Zrotation
					JOINT Spine2
					{
						OFFSET 0.000000 11.502998 -0.491200
						CHANNELS 3 Xrotation Yrotation Zrotation
						JOINT Neck_virtual
						{
							OFFSET 0.000000 0.000000 0.000000
							CHANNELS 3 Xrotation Yrotation Zrotation
							JOINT Neck
							{
								OFFSET 0.000000 18.430702 -3.123100
								CHANNELS 3 Xrotation Yrotation Zrotation
								JOINT Head
								{
									OFFSET 0.000000 9.051102 1.034000
									CHANNELS 3 Xrotation Yrotation Zrotation
									End Site
									{
										OFFSET 0 0 0
									}
								}
							}
						}
						JOINT LeftShoulder_virtual
						{
							OFFSET 0.000000 0.000000 0.000000
							CHANNELS 3 Xrotation Yrotation Zrotation
							JOINT LeftShoulder
							{
								OFFSET 6.197800 13.665199 -4.064700
								CHANNELS 3 Xrotation Yrotation Zrotation
								JOINT LeftArm
								{
									OFFSET 7.778100 -0.187103 -1.709300
									CHANNELS 3 Xrotation Yrotation Zrotation
									JOINT LeftForeArm
									{
										OFFSET 22.049376 0.000000 0.000000
										CHANNELS 3 Xrotation Yrotation Zrotation
										JOINT LeftHand
										{
											OFFSET 23.009392 0.000000 0.000000
											CHANNELS 3 Xrotation Yrotation Zrotation
											End Site
											{
												OFFSET 0 0 0
											}
										}
									}
								}
							}
						}
						JOINT RightShoulder_virtual
						{
							OFFSET 0.000000 0.000000 0.000000
							CHANNELS 3 Xrotation Yrotation Zrotation
							JOINT RightShoulder
							{
								OFFSET -6.197800 13.665199 -4.064700
								CHANNELS 3 Xrotation Yrotation Zrotation
								JOINT RightArm
								{
									OFFSET -7.778100 -0.187103 -1.709300
									CHANNELS 3 Xrotation Yrotation Zrotation
									JOINT RightForeArm
									{
										OFFSET -22.049376 0.000000 0.000000
										CHANNELS 3 Xrotation Yrotation Zrotation
										JOINT RightHand
										{
											OFFSET -23.009392 0.000000 0.000000
											CHANNELS 3 Xrotation Yrotation Zrotation
											End Site
											{
												OFFSET 0 0 0
											}
										}
									}
								}
							}
						}
					}
				}
			}
		}
	}
}
MOTION
Frames: 11
Frame Time: 0.03333333
-2.188473 78.897438 -1.771254 0.000000 0.000000 0.000000 1.779794 -44.827129 4.711139 -21.789656 7.762169 11.611182 11.917417 -8.344206 3.775130 7.487586 -2.891532 -18.373789 0.000000 0.000000 0.000000 1.779794 -44.827129 4.711139 -12.446678 -6.243101 -16.008985 25.414311 -11.558949 -8.188374 -10.278930 -5.648046 22.290778 0.000000 0.000000 0.000000 1.779794 -44.827129 4.711139 0.000000 -0.000001 0.000000 6.689927 0.774470 -0.750191 -0.557036 1.560419 -1.610235 0.000000 0.000000 0.000000 -0.534577 1.560469 -1.609752 -19.005368 -1.508386 20.421615 0.000000 0.000000 0.000000 -0.534577 1.560469 -1.609752 -8.631161 -5.317961 -15.297513 0.075338 -2.626987 -31.066818 42.317482 -37.063342 15.465970 0.000000 0.000000 0.000000 -0.534577 1.560469 -1.609752 -0.620554 15.164830 -23.726493 -69.097035 11.570650 13.062494 -66.678431 31.186220 49.367508 0.000000 0.000000 0.000000 
-1.726353 78.763489 -1.830280 0.000000 0.000000 0.000000 1.866876 -45.780190 4.945085 -22.317988 7.845303 11.731068 13.015091 -7.582557 3.412340 6.775196 -2.775441 -18.019263 0.000000 0.000000 0.000000 1.866876 -45.780190 4.945085 -13.544923 -5.836982 -16.277007 26.171074 -10.772917 -8.642740 -10.172158 -5.542363 22.537454 0.000000 0.000000 0.000000 1.866876 -45.780190 4.945085 0.000000 0.000003 0.000000 6.826396 0.789164 -0.692585 -0.284725 1.586131 -1.496925 0.000000 0.000000 0.000000 -0.262262 1.586182 -1.496444 -19.292211 0.711465 20.366997 0.000000 0.000000 0.000000 -0.262262 1.586182 -1.496444 -8.545909 -5.440089 -14.847631 0.040957 -2.007571 -31.692194 42.522528 -37.721198 16.179333 0.000000 0.000000 0.000000 -0.262262 1.586182 -1.496444 -1.211231 15.565841 -20.539017 -65.286356 12.486779 13.348858 -66.697712 37.549211 50.996207 0.000000 0.000000 0.000000 
-1.268706 78.621162 -1.891020 0.000000 0.000000 0.000000 1.965908 -46.727223 5.191031 -22.862720 7.922896 11.854064 14.123395 -6.832417 3.058817 6.084203 -2.670741 -17.685190 0.000000 0.000000 0.000000 1.965908 -46.727223 5.191031 -14.646880 -5.402178 -16.533567 26.953333 -9.984486 -9.052606 -10.091601 -5.426523 22.749311 0.000000 0.000000 0.000000 1.965908 -46.727223 5.191031 0.000000 -0.000003 0.000000 6.984215 0.798968 -0.648358 0.030507 1.602056 -1.410629 0.000000 0.000000 0.000000 0.052967 1.602122 -1.410150 -19.678868 2.847928 20.261702 0.000000 0.000000 0.000000 0.052967 1.602122 -1.410150 -8.451880 -5.621932 -14.376196 -0.075744 -1.533861 -32.297943 42.235380 -38.238589 16.524085 0.000000 0.000000 0.000000 0.052967 1.602122 -1.410150 -1.838002 15.913864 -17.234360 -61.208610 13.459273 13.486390 -68.704463 40.806497 53.529866 0.000000 0.000000 0.000000 
-0.817076 78.468506 -1.952232 0.000000 0.000000 0.000000 2.077871 -47.659697 5.444771 -23.657497 7.941273 12.007946 15.603629 -6.128058 2.723395 5.509231 -2.609226 -17.331424 0.000000 0.000000 0.000000 2.077871 -47.659697 5.444771 -15.791387 -4.985706 -16.860713 27.827471 -9.152346 -9.285300 -10.069284 -5.283010 22.858937 0.000000 0.000000 0.000000 2.077871 -47.659697 5.444771 0.000000 0.000002 0.000000 7.159996 0.808402 -0.609561 0.381791 1.616016 -1.339482 0.000000 0.000000 0.000000 0.404245 1.616075 -1.339004 -20.090173 4.892758 20.079756 0.000000 0.000000 0.000000 0.404245 1.616075 -1.339004 -8.350766 -5.895209 -13.889795 -0.307279 -1.191912 -32.855549 41.504901 -38.584620 16.501879 0.000000 0.000000 0.000000 0.404245 1.616075 -1.339004 -2.473714 16.306126 -13.905141 -56.841275 14.356175 13.304799 -70.415699 44.827669 55.470668 0.000000 0.000000 0.000000 
-0.374498 78.308075 -2.014433 0.000000 0.000000 0.000000 2.203432 -48.569120 5.705868 -24.466964 7.958301 12.163074 17.072087 -5.452492 2.411634 4.986590 -2.564482 -17.003104 0.000000 0.000000 0.000000 2.203432 -48.569120 5.705868 -16.987155 -4.612457 -17.299010 28.802829 -8.261749 -9.275604 -10.111251 -5.102112 22.827549 0.000000 0.000000 0.000000 2.203432 -48.569120 5.705868 0.000000 0.000001 0.000000 7.351208 0.823021 -0.577752 0.763980 1.639954 -1.283003 0.000000 0.000000 0.000000 0.786440 1.639999 -1.282523 -20.503108 6.813964 19.831232 0.000000 0.000000 0.000000 0.786440 1.639999 -1.282523 -8.246968 -6.260959 -13.419145 -0.679677 -0.986895 -33.318691 40.457410 -38.710083 16.172964 0.000000 0.000000 0.000000 0.786440 1.639999 -1.282523 -3.097944 16.714829 -10.628245 -52.210417 15.138921 12.803052 -72.258497 47.887587 57.121292 0.000000 0.000000 0.000000 
0.056320 78.141266 -2.077591 0.000000 0.000000 0.000000 2.343035 -49.446919 5.972486 -25.255808 7.984448 12.314793 18.471813 -4.831873 2.124380 4.497350 -2.507682 -16.703272 0.000000 0.000000 0.000000 2.343035 -49.446919 5.972486 -18.211629 -4.291886 -17.791669 29.821309 -7.343806 -9.128845 -10.190471 -4.881959 22.704440 0.000000 0.000000 0.000000 2.343035 -49.446919 5.972486 0.000000 0.000003 0.000000 7.548030 0.844541 -0.553367 1.157685 1.678207 -1.240632 0.000000 0.000000 0.000000 1.180152 1.678286 -1.240154 -20.894416 8.610084 19.556765 0.000000 0.000000 0.000000 1.180152 1.678286 -1.240154 -8.144140 -6.692227 -12.981982 -1.202812 -0.933779 -33.661344 39.220213 -38.576468 15.606255 0.000000 0.000000 0.000000 1.180152 1.678286 -1.240154 -3.713808 17.211267 -7.432983 -47.391804 15.763189 11.990074 -73.745846 50.054051 58.054757 0.000000 0.000000 0.000000 
0.472381 77.973038 -2.143337 0.000000 0.000000 0.000000 2.496747 -50.284109 6.246432 -26.035226 8.028237 12.423646 19.883529 -4.239334 1.864506 3.829113 -2.423120 -16.180819 0.000000 0.000000 0.000000 2.496747 -50.284109 6.246432 -19.425808 -4.017119 -18.264836 30.807483 -6.449976 -8.990753 -10.269097 -4.635676 22.609591 0.000000 0.000000 0.000000 2.496747 -50.284109 6.246432 0.000000 0.000001 0.000000 7.741791 0.864474 -0.543697 1.545304 1.715462 -1.217394 0.000000 0.000000 0.000000 1.567758 1.715550 -1.216919 -21.276051 10.292432 19.285469 0.000000 0.000000 0.000000 1.567758 1.715550 -1.216919 -8.046776 -7.136058 -12.600207 -1.873241 -1.038008 -33.862586 37.901406 -38.184579 14.869535 0.000000 0.000000 0.000000 1.567758 1.715550 -1.216919 -4.357182 17.398585 -4.255187 -42.601813 16.559326 11.296997 -74.448761 51.725951 57.873135 0.000000 0.000000 0.000000 
0.872069 77.798286 -2.209017 0.000000 0.000000 0.000000 2.664396 -51.072897 6.519379 -26.821379 8.081756 12.524304 21.292939 -3.685929 1.628192 3.091068 -2.341331 -15.588406 0.000000 0.000000 0.000000 2.664396 -51.072897 6.519379 -20.617583 -3.756759 -18.691236 31.769819 -5.616625 -8.880438 -10.345669 -4.390020 22.545222 0.000000 0.000000 0.000000 2.664396 -51.072897 6.519379 0.000000 0.000005 0.000000 7.919863 0.871983 -0.539465 1.901388 1.728230 -1.204782 0.000000 0.000000 0.000000 1.923851 1.728313 -1.204300 -21.618440 11.870868 19.044692 0.000000 0.000000 0.000000 1.923851 1.728313 -1.204300 -7.945124 -7.576184 -12.177461 -2.693451 -1.255118 -34.037452 36.558120 -37.553647 13.998860 0.000000 0.000000 0.000000 1.923851 1.728313 -1.204300 -5.017976 17.835664 -1.052282 -37.881636 17.260329 10.377604 -74.006158 53.391418 56.213393 0.000000 0.000000 0.000000 
1.207695 77.566620 -2.280100 0.000000 0.000000 0.000000 2.883281 -51.716437 6.807589 -27.795258 8.088354 12.743883 22.868013 -3.324030 1.375244 2.469247 -2.275503 -15.312857 0.000000 0.000000 0.000000 2.883281 -51.716437 6.807589 -21.866948 -3.466511 -19.020260 32.974968 -4.945237 -8.835799 -10.583880 -4.222802 22.514762 0.000000 0.000000 0.000000 2.883281 -51.716437 6.807589 0.000000 0.000001 0.000000 8.080972 0.861764 -0.535514 2.223410 1.704133 -1.199195 0.000000 0.000000 0.000000 2.245870 1.704217 -1.198721 -21.905458 13.314364 18.866738 0.000000 0.000000 0.000000 2.245870 1.704217 -1.198721 -7.843773 -7.966331 -11.756802 -3.612928 -1.560433 -34.142330 35.196378 -36.782737 13.022774 0.000000 0.000000 0.000000 2.245870 1.704217 -1.198721 -5.656802 18.013324 2.007449 -33.568368 17.849458 9.607806 -72.924762 55.314485 53.804187 0.000000 0.000000 0.000000 
1.520398 77.331520 -2.347567 0.000000 0.000000 0.000000 3.064654 -52.290060 7.027768 -28.736334 8.060567 12.988912 24.408344 -3.017192 1.123542 1.841678 -2.212859 -15.018963 0.000000 0.000000 0.000000 3.064654 -52.290060 7.027768 -23.022799 -3.195646 -19.298694 34.127532 -4.369580 -8.772313 -10.813665 -4.056814 22.469260 0.000000 0.000000 0.000000 3.064654 -52.290060 7.027768 0.000000 0.000002 0.000000 8.225978 0.839444 -0.533783 2.513122 1.656339 -1.196034 0.000000 0.000000 0.000000 2.535577 1.656451 -1.195564 -22.107202 14.600969 18.728232 0.000000 0.000000 0.000000 2.535577 1.656451 -1.195564 -7.749003 -8.301043 -11.364169 -4.584455 -1.904503 -34.156827 33.803743 -35.979258 11.966149 0.000000 0.000000 0.000000 2.535577 1.656451 -1.195564 -6.355745 18.244733 5.208487 -29.035725 18.391804 8.982466 -69.225306 59.814924 48.009789 0.000000 0.000000 0.000000 
1.811878 77.094475 -2.405764 0.000000 0.000000 0.000000 3.223668 -52.824536 7.208475 -29.635057 8.006442 13.254074 25.896804 -2.743789 0.873065 1.245505 -2.156305 -14.767993 0.000000 0.000000 0.000000 3.223668 -52.824536 7.208475 -24.111309 -2.944991 -19.556618 35.234501 -3.843039 -8.687191 -11.038142 -3.887012 22.410605 0.000000 0.000000 0.000000 3.223668 -52.824536 7.208475 0.000000 -0.000003 0.000000 8.358767 0.818636 -0.535819 2.778440 1.612289 -1.199973 0.000000 0.000000 0.000000 2.800891 1.612374 -1.199494 -22.204233 15.732861 18.566293 0.000000 0.000000 0.000000 2.800891 1.612374 -1.199494 -7.645246 -8.632760 -10.901456 -5.617768 -2.200389 -34.209242 32.381497 -35.183739 10.853028 0.000000 0.000000 0.000000 2.800891 1.612374 -1.199494 -6.985795 18.396613 8.015031 -25.184489 18.568894 8.157958 -65.263769 61.460412 42.717536 0.000000 0.000000 0.000000 
